solid Bldgs
  facet normal -0 1 0
    outer loop
      vertex 7.1389145851135254 4.4308819770812988 0
      vertex 8.1256046295166016 4.4308819770812988 1.2999999523162842
      vertex 8.1256046295166016 4.4308819770812988 0
    endloop
  endfacet
  facet normal -0 1 0
    outer loop
      vertex 8.1256046295166016 4.4308819770812988 1.2999999523162842
      vertex 7.1389145851135254 4.4308819770812988 0
      vertex 6.1522250175476074 4.4308819770812988 0
    endloop
  endfacet
  facet normal -0 1 -0
    outer loop
      vertex 6.1522250175476074 4.4308819770812988 3.25
      vertex 8.1256046295166016 4.4308819770812988 2.5999999046325684
      vertex 8.1256046295166016 4.4308819770812988 1.2999999523162842
    endloop
  endfacet
  facet normal 0 1 -0
    outer loop
      vertex 6.1522250175476074 4.4308819770812988 3.25
      vertex 8.1256046295166016 4.4308819770812988 3.9000000953674316
      vertex 8.1256046295166016 4.4308819770812988 2.5999999046325684
    endloop
  endfacet
  facet normal 0 1 -0
    outer loop
      vertex 8.1256046295166016 4.4308819770812988 6.5
      vertex 8.1256046295166016 4.4308819770812988 5.1999998092651367
      vertex 6.8100180625915527 4.4308819770812988 6.5
    endloop
  endfacet
  facet normal 0 1 0
    outer loop
      vertex 8.1256046295166016 4.4308819770812988 5.1999998092651367
      vertex 6.1522250175476074 4.4308819770812988 4.875
      vertex 6.8100180625915527 4.4308819770812988 6.5
    endloop
  endfacet
  facet normal 0 1 -0
    outer loop
      vertex 6.1522250175476074 4.4308819770812988 4.875
      vertex 8.1256046295166016 4.4308819770812988 5.1999998092651367
      vertex 8.1256046295166016 4.4308819770812988 3.9000000953674316
    endloop
  endfacet
  facet normal -0 1 -0
    outer loop
      vertex 8.1256046295166016 4.4308819770812988 1.2999999523162842
      vertex 6.1522250175476074 4.4308819770812988 0
      vertex 6.1522250175476074 4.4308819770812988 3.25
    endloop
  endfacet
  facet normal -0 1 0
    outer loop
      vertex 6.1522250175476074 4.4308819770812988 3.25
      vertex 6.1522250175476074 4.4308819770812988 0
      vertex 4.1788449287414551 4.4308819770812988 1.2999999523162842
    endloop
  endfacet
  facet normal 0 1 0
    outer loop
      vertex 6.1522250175476074 4.4308819770812988 3.25
      vertex 4.1788449287414551 4.4308819770812988 1.2999999523162842
      vertex 4.1788449287414551 4.4308819770812988 2.5999999046325684
    endloop
  endfacet
  facet normal 0 1 0
    outer loop
      vertex 5.1655349731445313 4.4308819770812988 0
      vertex 4.1788449287414551 4.4308819770812988 1.2999999523162842
      vertex 6.1522250175476074 4.4308819770812988 0
    endloop
  endfacet
  facet normal -0 1 -0
    outer loop
      vertex 5.1655349731445313 4.4308819770812988 0
      vertex 4.1788449287414551 4.4308819770812988 0
      vertex 4.1788449287414551 4.4308819770812988 1.2999999523162842
    endloop
  endfacet
  facet normal -0 1 -0
    outer loop
      vertex 4.1788449287414551 4.4308819770812988 3.9000000953674316
      vertex 6.1522250175476074 4.4308819770812988 3.25
      vertex 4.1788449287414551 4.4308819770812988 2.5999999046325684
    endloop
  endfacet
  facet normal -0 1 0
    outer loop
      vertex 6.8100180625915527 4.4308819770812988 6.5
      vertex 6.1522250175476074 4.4308819770812988 4.875
      vertex 5.4944314956665039 4.4308819770812988 6.5
    endloop
  endfacet
  facet normal 0 1 -0
    outer loop
      vertex 4.1788449287414551 4.4308819770812988 5.1999998092651367
      vertex 5.4944314956665039 4.4308819770812988 6.5
      vertex 6.1522250175476074 4.4308819770812988 4.875
    endloop
  endfacet
  facet normal 0 1 0
    outer loop
      vertex 6.1522250175476074 4.4308819770812988 4.875
      vertex 4.1788449287414551 4.4308819770812988 3.9000000953674316
      vertex 4.1788449287414551 4.4308819770812988 5.1999998092651367
    endloop
  endfacet
  facet normal 0 1 0
    outer loop
      vertex 5.4944314956665039 4.4308819770812988 6.5
      vertex 4.1788449287414551 4.4308819770812988 5.1999998092651367
      vertex 4.1788449287414551 4.4308819770812988 6.5
    endloop
  endfacet
  facet normal 0 1 -0
    outer loop
      vertex 4.1788449287414551 4.4308819770812988 3.9000000953674316
      vertex 6.1522250175476074 4.4308819770812988 4.875
      vertex 6.1522250175476074 4.4308819770812988 3.25
    endloop
  endfacet
  facet normal 0 1 0
    outer loop
      vertex 8.1256046295166016 4.4308819770812988 3.9000000953674316
      vertex 6.1522250175476074 4.4308819770812988 3.25
      vertex 6.1522250175476074 4.4308819770812988 4.875
    endloop
  endfacet
  facet normal -1 -0 0
    outer loop
      vertex 8.1256046295166016 7.1879754066467285 0
      vertex 8.1256046295166016 8.1070070266723633 1.2999999523162842
      vertex 8.1256046295166016 8.1070070266723633 0
    endloop
  endfacet
  facet normal -1 0 -0
    outer loop
      vertex 8.1256046295166016 8.1070070266723633 1.2999999523162842
      vertex 8.1256046295166016 7.1879754066467285 0
      vertex 8.1256046295166016 6.268944263458252 0
    endloop
  endfacet
  facet normal -1 0 0
    outer loop
      vertex 8.1256046295166016 6.268944263458252 3.25
      vertex 8.1256046295166016 8.1070070266723633 2.5999999046325684
      vertex 8.1256046295166016 8.1070070266723633 1.2999999523162842
    endloop
  endfacet
  facet normal -1 0 0
    outer loop
      vertex 8.1256046295166016 6.268944263458252 3.25
      vertex 8.1256046295166016 8.1070070266723633 3.9000000953674316
      vertex 8.1256046295166016 8.1070070266723633 2.5999999046325684
    endloop
  endfacet
  facet normal -1 0 -0
    outer loop
      vertex 8.1256046295166016 8.1070070266723633 6.5
      vertex 8.1256046295166016 8.1070070266723633 5.1999998092651367
      vertex 8.1256046295166016 6.8816318511962891 6.5
    endloop
  endfacet
  facet normal -1 0 -0
    outer loop
      vertex 8.1256046295166016 8.1070070266723633 5.1999998092651367
      vertex 8.1256046295166016 6.268944263458252 4.875
      vertex 8.1256046295166016 6.8816318511962891 6.5
    endloop
  endfacet
  facet normal -1 0 0
    outer loop
      vertex 8.1256046295166016 6.268944263458252 4.875
      vertex 8.1256046295166016 8.1070070266723633 5.1999998092651367
      vertex 8.1256046295166016 8.1070070266723633 3.9000000953674316
    endloop
  endfacet
  facet normal -1 0 0
    outer loop
      vertex 8.1256046295166016 8.1070070266723633 1.2999999523162842
      vertex 8.1256046295166016 6.268944263458252 0
      vertex 8.1256046295166016 6.268944263458252 3.25
    endloop
  endfacet
  facet normal -1 0 -0
    outer loop
      vertex 8.1256046295166016 6.268944263458252 3.25
      vertex 8.1256046295166016 6.268944263458252 0
      vertex 8.1256046295166016 4.4308819770812988 1.2999999523162842
    endloop
  endfacet
  facet normal -1 0 -0
    outer loop
      vertex 8.1256046295166016 6.268944263458252 3.25
      vertex 8.1256046295166016 4.4308819770812988 1.2999999523162842
      vertex 8.1256046295166016 4.4308819770812988 2.5999999046325684
    endloop
  endfacet
  facet normal -1 0 -0
    outer loop
      vertex 8.1256046295166016 5.3499131202697754 0
      vertex 8.1256046295166016 4.4308819770812988 1.2999999523162842
      vertex 8.1256046295166016 6.268944263458252 0
    endloop
  endfacet
  facet normal -1 0 0
    outer loop
      vertex 8.1256046295166016 5.3499131202697754 0
      vertex 8.1256046295166016 4.4308819770812988 0
      vertex 8.1256046295166016 4.4308819770812988 1.2999999523162842
    endloop
  endfacet
  facet normal -1 0 0
    outer loop
      vertex 8.1256046295166016 4.4308819770812988 3.9000000953674316
      vertex 8.1256046295166016 6.268944263458252 3.25
      vertex 8.1256046295166016 4.4308819770812988 2.5999999046325684
    endloop
  endfacet
  facet normal -1 0 -0
    outer loop
      vertex 8.1256046295166016 6.8816318511962891 6.5
      vertex 8.1256046295166016 6.268944263458252 4.875
      vertex 8.1256046295166016 5.656257152557373 6.5
    endloop
  endfacet
  facet normal -1 0 0
    outer loop
      vertex 8.1256046295166016 4.4308819770812988 5.1999998092651367
      vertex 8.1256046295166016 5.656257152557373 6.5
      vertex 8.1256046295166016 6.268944263458252 4.875
    endloop
  endfacet
  facet normal -1 0 -0
    outer loop
      vertex 8.1256046295166016 6.268944263458252 4.875
      vertex 8.1256046295166016 4.4308819770812988 3.9000000953674316
      vertex 8.1256046295166016 4.4308819770812988 5.1999998092651367
    endloop
  endfacet
  facet normal -1 0 -0
    outer loop
      vertex 8.1256046295166016 5.656257152557373 6.5
      vertex 8.1256046295166016 4.4308819770812988 5.1999998092651367
      vertex 8.1256046295166016 4.4308819770812988 6.5
    endloop
  endfacet
  facet normal -1 0 0
    outer loop
      vertex 8.1256046295166016 4.4308819770812988 3.9000000953674316
      vertex 8.1256046295166016 6.268944263458252 4.875
      vertex 8.1256046295166016 6.268944263458252 3.25
    endloop
  endfacet
  facet normal -1 0 -0
    outer loop
      vertex 8.1256046295166016 8.1070070266723633 3.9000000953674316
      vertex 8.1256046295166016 6.268944263458252 3.25
      vertex 8.1256046295166016 6.268944263458252 4.875
    endloop
  endfacet
  facet normal -0 -1 0
    outer loop
      vertex 5.1655349731445313 8.1070070266723633 0
      vertex 4.1788449287414551 8.1070070266723633 1.2999999523162842
      vertex 4.1788449287414551 8.1070070266723633 0
    endloop
  endfacet
  facet normal -0 -1 -0
    outer loop
      vertex 4.1788449287414551 8.1070070266723633 1.2999999523162842
      vertex 5.1655349731445313 8.1070070266723633 0
      vertex 6.1522250175476074 8.1070070266723633 0
    endloop
  endfacet
  facet normal -0 -1 0
    outer loop
      vertex 6.1522250175476074 8.1070070266723633 3.25
      vertex 4.1788449287414551 8.1070070266723633 2.5999999046325684
      vertex 4.1788449287414551 8.1070070266723633 1.2999999523162842
    endloop
  endfacet
  facet normal 0 -1 0
    outer loop
      vertex 6.1522250175476074 8.1070070266723633 3.25
      vertex 4.1788449287414551 8.1070070266723633 3.9000000953674316
      vertex 4.1788449287414551 8.1070070266723633 2.5999999046325684
    endloop
  endfacet
  facet normal 0 -1 0
    outer loop
      vertex 4.1788449287414551 8.1070070266723633 6.5
      vertex 4.1788449287414551 8.1070070266723633 5.1999998092651367
      vertex 5.4944314956665039 8.1070070266723633 6.5
    endloop
  endfacet
  facet normal 0 -1 -0
    outer loop
      vertex 4.1788449287414551 8.1070070266723633 5.1999998092651367
      vertex 6.1522250175476074 8.1070070266723633 4.875
      vertex 5.4944314956665039 8.1070070266723633 6.5
    endloop
  endfacet
  facet normal 0 -1 0
    outer loop
      vertex 6.1522250175476074 8.1070070266723633 4.875
      vertex 4.1788449287414551 8.1070070266723633 5.1999998092651367
      vertex 4.1788449287414551 8.1070070266723633 3.9000000953674316
    endloop
  endfacet
  facet normal -0 -1 0
    outer loop
      vertex 4.1788449287414551 8.1070070266723633 1.2999999523162842
      vertex 6.1522250175476074 8.1070070266723633 0
      vertex 6.1522250175476074 8.1070070266723633 3.25
    endloop
  endfacet
  facet normal -0 -1 -0
    outer loop
      vertex 6.1522250175476074 8.1070070266723633 3.25
      vertex 6.1522250175476074 8.1070070266723633 0
      vertex 8.1256046295166016 8.1070070266723633 1.2999999523162842
    endloop
  endfacet
  facet normal 0 -1 -0
    outer loop
      vertex 6.1522250175476074 8.1070070266723633 3.25
      vertex 8.1256046295166016 8.1070070266723633 1.2999999523162842
      vertex 8.1256046295166016 8.1070070266723633 2.5999999046325684
    endloop
  endfacet
  facet normal 0 -1 -0
    outer loop
      vertex 7.1389145851135254 8.1070070266723633 0
      vertex 8.1256046295166016 8.1070070266723633 1.2999999523162842
      vertex 6.1522250175476074 8.1070070266723633 0
    endloop
  endfacet
  facet normal -0 -1 0
    outer loop
      vertex 7.1389145851135254 8.1070070266723633 0
      vertex 8.1256046295166016 8.1070070266723633 0
      vertex 8.1256046295166016 8.1070070266723633 1.2999999523162842
    endloop
  endfacet
  facet normal -0 -1 0
    outer loop
      vertex 8.1256046295166016 8.1070070266723633 3.9000000953674316
      vertex 6.1522250175476074 8.1070070266723633 3.25
      vertex 8.1256046295166016 8.1070070266723633 2.5999999046325684
    endloop
  endfacet
  facet normal -0 -1 -0
    outer loop
      vertex 5.4944314956665039 8.1070070266723633 6.5
      vertex 6.1522250175476074 8.1070070266723633 4.875
      vertex 6.8100180625915527 8.1070070266723633 6.5
    endloop
  endfacet
  facet normal 0 -1 0
    outer loop
      vertex 8.1256046295166016 8.1070070266723633 5.1999998092651367
      vertex 6.8100180625915527 8.1070070266723633 6.5
      vertex 6.1522250175476074 8.1070070266723633 4.875
    endloop
  endfacet
  facet normal 0 -1 -0
    outer loop
      vertex 6.1522250175476074 8.1070070266723633 4.875
      vertex 8.1256046295166016 8.1070070266723633 3.9000000953674316
      vertex 8.1256046295166016 8.1070070266723633 5.1999998092651367
    endloop
  endfacet
  facet normal 0 -1 -0
    outer loop
      vertex 6.8100180625915527 8.1070070266723633 6.5
      vertex 8.1256046295166016 8.1070070266723633 5.1999998092651367
      vertex 8.1256046295166016 8.1070070266723633 6.5
    endloop
  endfacet
  facet normal 0 -1 0
    outer loop
      vertex 8.1256046295166016 8.1070070266723633 3.9000000953674316
      vertex 6.1522250175476074 8.1070070266723633 4.875
      vertex 6.1522250175476074 8.1070070266723633 3.25
    endloop
  endfacet
  facet normal 0 -1 -0
    outer loop
      vertex 4.1788449287414551 8.1070070266723633 3.9000000953674316
      vertex 6.1522250175476074 8.1070070266723633 3.25
      vertex 6.1522250175476074 8.1070070266723633 4.875
    endloop
  endfacet
  facet normal 0 0 -1
    outer loop
      vertex 4.1788449287414551 5.656257152557373 6.5
      vertex 5.4944314956665039 4.4308819770812988 6.5
      vertex 4.1788449287414551 4.4308819770812988 6.5
    endloop
  endfacet
  facet normal -0 -0 -1
    outer loop
      vertex 4.1788449287414551 6.8816318511962891 6.5
      vertex 5.4944314956665039 4.4308819770812988 6.5
      vertex 4.1788449287414551 5.656257152557373 6.5
    endloop
  endfacet
  facet normal 0 0 -1
    outer loop
      vertex 4.1788449287414551 8.1070070266723633 6.5
      vertex 5.4944314956665039 8.1070070266723633 6.5
      vertex 4.1788449287414551 6.8816318511962891 6.5
    endloop
  endfacet
  facet normal -0 0 -1
    outer loop
      vertex 4.1788449287414551 6.8816318511962891 6.5
      vertex 5.4944314956665039 8.1070070266723633 6.5
      vertex 8.1256046295166016 6.8816318511962891 6.5
    endloop
  endfacet
  facet normal 0 -0 -1
    outer loop
      vertex 6.8100180625915527 4.4308819770812988 6.5
      vertex 5.4944314956665039 4.4308819770812988 6.5
      vertex 4.1788449287414551 6.8816318511962891 6.5
    endloop
  endfacet
  facet normal -0 0 -1
    outer loop
      vertex 8.1256046295166016 5.656257152557373 6.5
      vertex 8.1256046295166016 4.4308819770812988 6.5
      vertex 6.8100180625915527 4.4308819770812988 6.5
    endloop
  endfacet
  facet normal -0 0 -1
    outer loop
      vertex 8.1256046295166016 6.8816318511962891 6.5
      vertex 8.1256046295166016 5.656257152557373 6.5
      vertex 6.8100180625915527 4.4308819770812988 6.5
    endloop
  endfacet
  facet normal 0 0 -1
    outer loop
      vertex 8.1256046295166016 8.1070070266723633 6.5
      vertex 8.1256046295166016 6.8816318511962891 6.5
      vertex 6.8100180625915527 8.1070070266723633 6.5
    endloop
  endfacet
  facet normal -0 -0 -1
    outer loop
      vertex 8.1256046295166016 6.8816318511962891 6.5
      vertex 5.4944314956665039 8.1070070266723633 6.5
      vertex 6.8100180625915527 8.1070070266723633 6.5
    endloop
  endfacet
  facet normal 0 -0 -1
    outer loop
      vertex 6.8100180625915527 4.4308819770812988 6.5
      vertex 4.1788449287414551 6.8816318511962891 6.5
      vertex 8.1256046295166016 6.8816318511962891 6.5
    endloop
  endfacet
  facet normal 1 -0 -0
    outer loop
      vertex 4.1788449287414551 5.3499131202697754 0
      vertex 4.1788449287414551 4.4308819770812988 1.2999999523162842
      vertex 4.1788449287414551 4.4308819770812988 0
    endloop
  endfacet
  facet normal 1 0 0
    outer loop
      vertex 4.1788449287414551 4.4308819770812988 1.2999999523162842
      vertex 4.1788449287414551 5.3499131202697754 0
      vertex 4.1788449287414551 6.268944263458252 0
    endloop
  endfacet
  facet normal 1 0 -0
    outer loop
      vertex 4.1788449287414551 6.268944263458252 3.25
      vertex 4.1788449287414551 4.4308819770812988 2.5999999046325684
      vertex 4.1788449287414551 4.4308819770812988 1.2999999523162842
    endloop
  endfacet
  facet normal 1 0 -0
    outer loop
      vertex 4.1788449287414551 6.268944263458252 3.25
      vertex 4.1788449287414551 4.4308819770812988 3.9000000953674316
      vertex 4.1788449287414551 4.4308819770812988 2.5999999046325684
    endloop
  endfacet
  facet normal 1 0 0
    outer loop
      vertex 4.1788449287414551 4.4308819770812988 6.5
      vertex 4.1788449287414551 4.4308819770812988 5.1999998092651367
      vertex 4.1788449287414551 5.656257152557373 6.5
    endloop
  endfacet
  facet normal 1 0 0
    outer loop
      vertex 4.1788449287414551 4.4308819770812988 5.1999998092651367
      vertex 4.1788449287414551 6.268944263458252 4.875
      vertex 4.1788449287414551 5.656257152557373 6.5
    endloop
  endfacet
  facet normal 1 0 -0
    outer loop
      vertex 4.1788449287414551 6.268944263458252 4.875
      vertex 4.1788449287414551 4.4308819770812988 5.1999998092651367
      vertex 4.1788449287414551 4.4308819770812988 3.9000000953674316
    endloop
  endfacet
  facet normal 1 0 -0
    outer loop
      vertex 4.1788449287414551 4.4308819770812988 1.2999999523162842
      vertex 4.1788449287414551 6.268944263458252 0
      vertex 4.1788449287414551 6.268944263458252 3.25
    endloop
  endfacet
  facet normal 1 0 0
    outer loop
      vertex 4.1788449287414551 6.268944263458252 3.25
      vertex 4.1788449287414551 6.268944263458252 0
      vertex 4.1788449287414551 8.1070070266723633 1.2999999523162842
    endloop
  endfacet
  facet normal 1 0 0
    outer loop
      vertex 4.1788449287414551 6.268944263458252 3.25
      vertex 4.1788449287414551 8.1070070266723633 1.2999999523162842
      vertex 4.1788449287414551 8.1070070266723633 2.5999999046325684
    endloop
  endfacet
  facet normal 1 0 0
    outer loop
      vertex 4.1788449287414551 7.1879754066467285 0
      vertex 4.1788449287414551 8.1070070266723633 1.2999999523162842
      vertex 4.1788449287414551 6.268944263458252 0
    endloop
  endfacet
  facet normal 1 0 -0
    outer loop
      vertex 4.1788449287414551 7.1879754066467285 0
      vertex 4.1788449287414551 8.1070070266723633 0
      vertex 4.1788449287414551 8.1070070266723633 1.2999999523162842
    endloop
  endfacet
  facet normal 1 0 -0
    outer loop
      vertex 4.1788449287414551 8.1070070266723633 3.9000000953674316
      vertex 4.1788449287414551 6.268944263458252 3.25
      vertex 4.1788449287414551 8.1070070266723633 2.5999999046325684
    endloop
  endfacet
  facet normal 1 0 0
    outer loop
      vertex 4.1788449287414551 5.656257152557373 6.5
      vertex 4.1788449287414551 6.268944263458252 4.875
      vertex 4.1788449287414551 6.8816318511962891 6.5
    endloop
  endfacet
  facet normal 1 0 -0
    outer loop
      vertex 4.1788449287414551 8.1070070266723633 5.1999998092651367
      vertex 4.1788449287414551 6.8816318511962891 6.5
      vertex 4.1788449287414551 6.268944263458252 4.875
    endloop
  endfacet
  facet normal 1 0 0
    outer loop
      vertex 4.1788449287414551 6.268944263458252 4.875
      vertex 4.1788449287414551 8.1070070266723633 3.9000000953674316
      vertex 4.1788449287414551 8.1070070266723633 5.1999998092651367
    endloop
  endfacet
  facet normal 1 0 0
    outer loop
      vertex 4.1788449287414551 6.8816318511962891 6.5
      vertex 4.1788449287414551 8.1070070266723633 5.1999998092651367
      vertex 4.1788449287414551 8.1070070266723633 6.5
    endloop
  endfacet
  facet normal 1 0 -0
    outer loop
      vertex 4.1788449287414551 8.1070070266723633 3.9000000953674316
      vertex 4.1788449287414551 6.268944263458252 4.875
      vertex 4.1788449287414551 6.268944263458252 3.25
    endloop
  endfacet
  facet normal 1 0 0
    outer loop
      vertex 4.1788449287414551 4.4308819770812988 3.9000000953674316
      vertex 4.1788449287414551 6.268944263458252 3.25
      vertex 4.1788449287414551 6.268944263458252 4.875
    endloop
  endfacet
endsolid Bldgs
