solid OBJECT
  facet normal -0 0 1
    outer loop
      vertex 0.99921834468841553 0.99882757663726807 1
      vertex -0.00078163528814911842 0.99882757663726807 1
      vertex -0.00078163528814911842 -0.0011724529322236776 1
    endloop
  endfacet
  facet normal 0 0 1
    outer loop
      vertex 0.99921834468841553 0.99882757663726807 1
      vertex -0.00078163528814911842 -0.0011724529322236776 1
      vertex 0.99921834468841553 -0.0011724529322236776 1
    endloop
  endfacet
  facet normal 0 -0 -1
    outer loop
      vertex 0.99921834468841553 0.99882757663726807 0
      vertex 0.99921834468841553 -0.0011724529322236776 0
      vertex -0.00078163528814911842 -0.0011724529322236776 0
    endloop
  endfacet
  facet normal 0 -0 -1
    outer loop
      vertex 0.99921834468841553 0.99882757663726807 0
      vertex -0.00078163528814911842 -0.0011724529322236776 0
      vertex -0.00078163528814911842 0.99882757663726807 0
    endloop
  endfacet
  facet normal -1 0 0
    outer loop
      vertex -0.00078163528814911842 -0.0011724529322236776 1
      vertex -0.00078163528814911842 0.99882757663726807 1
      vertex -0.00078163528814911842 0.99882757663726807 0
    endloop
  endfacet
  facet normal -1 0 0
    outer loop
      vertex -0.00078163528814911842 -0.0011724529322236776 1
      vertex -0.00078163528814911842 0.99882757663726807 0
      vertex -0.00078163528814911842 -0.0011724529322236776 0
    endloop
  endfacet
  facet normal 0 1 0
    outer loop
      vertex -0.00078163528814911842 0.99882757663726807 1
      vertex 0.99921834468841553 0.99882757663726807 1
      vertex 0.99921834468841553 0.99882757663726807 0
    endloop
  endfacet
  facet normal -0 1 0
    outer loop
      vertex -0.00078163528814911842 0.99882757663726807 1
      vertex 0.99921834468841553 0.99882757663726807 0
      vertex -0.00078163528814911842 0.99882757663726807 0
    endloop
  endfacet
  facet normal 1 0 -0
    outer loop
      vertex 0.99921834468841553 0.99882757663726807 1
      vertex 0.99921834468841553 -0.0011724529322236776 1
      vertex 0.99921834468841553 -0.0011724529322236776 0
    endloop
  endfacet
  facet normal 1 0 -0
    outer loop
      vertex 0.99921834468841553 0.99882757663726807 1
      vertex 0.99921834468841553 -0.0011724529322236776 0
      vertex 0.99921834468841553 0.99882757663726807 0
    endloop
  endfacet
  facet normal 0 -1 -0
    outer loop
      vertex 0.99921834468841553 -0.0011724529322236776 1
      vertex -0.00078163528814911842 -0.0011724529322236776 1
      vertex -0.00078163528814911842 -0.0011724529322236776 0
    endloop
  endfacet
  facet normal -0 -1 0
    outer loop
      vertex 0.99921834468841553 -0.0011724529322236776 1
      vertex -0.00078163528814911842 -0.0011724529322236776 0
      vertex 0.99921834468841553 -0.0011724529322236776 0
    endloop
  endfacet
endsolid OBJECT
